<svg width="42" height="42" viewBox="0 0 42 42" fill="none" xmlns="http://www.w3.org/2000/svg">
<path d="M42 36H36V42H42V36Z" fill="#4A4A4A"/>
<path d="M24 18H18V24H24V18Z" fill="#4A4A4A"/>
<path d="M18 24H12V30H18V24Z" fill="#4A4A4A"/>
<path d="M12 30H6V36H12V30Z" fill="#4A4A4A"/>
<path d="M6 36H0V42H6V36Z" fill="#4A4A4A"/>
<path d="M30 12H24V18H30V12Z" fill="#4A4A4A"/>
<path d="M36 6H30V12H36V6Z" fill="#4A4A4A"/>
<path d="M42 0H36V6H42V0Z" fill="#4A4A4A"/>
<path d="M30 24H24V30H30V24Z" fill="#4A4A4A"/>
<path d="M36 30H30V36H36V30Z" fill="#4A4A4A"/>
<path d="M18 12H12V18H18V12Z" fill="#4A4A4A"/>
<path d="M6 0H0V6H6V0Z" fill="#4A4A4A"/>
<path d="M12 6H6V12H12V6Z" fill="#4A4A4A"/>
</svg>
