<svg width="100" height="100" viewBox="0 0 100 100" fill="none" xmlns="http://www.w3.org/2000/svg">
<path fill-rule="evenodd" clip-rule="evenodd" d="M5.5547 83.3324H0V11.1094H5.5547V83.3324ZM5.5547 11.1094V5.5547H11.1094V11.1094H5.5547ZM11.1094 5.5547V0H88.8864V5.5547H11.1094ZM88.8864 5.5547H94.4411V11.1094H88.8864V5.5547ZM94.4411 11.1094H99.9958V83.3324H94.4411V11.1094ZM94.4411 83.3324V94.4414H83.3321V99.9961H16.6641V94.4414H5.5551L5.5547 83.3324H16.6641V88.8871H83.3321V83.3324H94.4411ZM21.5231 21.5274V30.8321H12.2184V21.5274H21.5231ZM21.5231 21.5274V12.2227H30.8278V21.5274H21.5231ZM42.7731 46.3864H27.7731V40.8317H33.3278V35.277H38.8825V29.7223H44.4372V24.1676H55.5462V29.7223H61.1009V35.277H66.6556V40.8317H72.2103V46.3864H57.2103V74.1634H55.5423V75.8314H44.4333V74.1634H42.7653V46.3864H42.7731Z" fill="#E0E0E0"/>
</svg>
