<svg width="100" height="100" viewBox="0 0 100 100" fill="none" xmlns="http://www.w3.org/2000/svg">
<path fill-rule="evenodd" clip-rule="evenodd" d="M5.5547 83.3324H0V11.1094H5.5547V83.3324ZM5.5547 11.1094V5.5547H11.1094V11.1094H5.5547ZM11.1094 5.5547V0H88.8864V5.5547H11.1094ZM88.8864 5.5547H94.4411V11.1094H88.8864V5.5547ZM94.4411 11.1094H99.9958V83.3324H94.4411V11.1094ZM94.4411 83.3324V94.4414H83.3321V99.9961H16.6641V94.4414H5.5551L5.5547 83.3324H16.6641V88.8871H83.3321V83.3324H94.4411ZM25.8321 55.5554H24.1641V44.4464H25.8321V42.7784H53.6091V27.7784H59.1638V33.3331H64.7185V38.8878H70.2732V44.4425H75.8279V55.5515H70.2732V61.1062H64.7185V66.6609H59.1638V72.2156H53.6091V57.2156H25.8321V55.5476V55.5554ZM21.5274 21.5284V30.8331H12.2227V21.5284H21.5274ZM21.5274 21.5284V12.2237H30.8321V21.5284H21.5274Z" fill="#e5e5e5"/>
</svg>
