<svg width="100" height="100" viewBox="0 0 100 100" fill="none" xmlns="http://www.w3.org/2000/svg">
<path fill-rule="evenodd" clip-rule="evenodd" d="M5.5547 83.3324H0V11.1094H5.5547V83.3324ZM5.5547 11.1094V5.5547H11.1094V11.1094H5.5547ZM11.1094 5.5547V0H88.8864V5.5547H11.1094ZM88.8864 5.5547H94.4411V11.1094H88.8864V5.5547ZM94.4411 11.1094H99.9958V83.3324H94.4411V11.1094ZM94.4411 83.3324V94.4414H83.3321V99.9961H16.6641V94.4414H5.5551L5.5547 83.3324H16.6641V88.8871H83.3321V83.3324H94.4411ZM21.5231 21.5274V30.8321H12.2184V21.5274H21.5231ZM21.5231 21.5274V12.2227H30.8278V21.5274H21.5231ZM29.7184 44.4454V38.8907H35.2731V33.336H40.8278V27.7813H46.3825V42.7813H74.1595V44.4493H75.8275V55.5583H74.1595V57.2263H46.3825V72.2263H40.8278V66.6716H35.2731V61.1169H29.7184V55.5622H24.1637V44.4532H29.7184V44.4454Z" fill="#e5e5e5"/>
</svg>
